<mxfile host="app.diagrams.net" modified="2021-07-30T23:59:14.829Z" agent="5.0 (Windows NT 10.0; Win64; x64) AppleWebKit/537.36 (KHTML, like Gecko) Chrome/91.0.4472.164 Safari/537.36 OPR/77.0.4054.277" etag="5ED9Q_QqxYiBfoB92Fqa" version="14.9.2" type="github" pages="2">
  <diagram id="lJYq2anaXVxP5Xyo020N" name="C4-nivel1">
    <mxGraphModel dx="1655" dy="452" grid="1" gridSize="10" guides="1" tooltips="1" connect="1" arrows="1" fold="1" page="1" pageScale="1" pageWidth="827" pageHeight="1169" math="0" shadow="0">
      <root>
        <mxCell id="0" />
        <mxCell id="1" parent="0" />
        <object label="&lt;font style=&quot;font-size: 16px&quot;&gt;&lt;b&gt;%A_NAME%&lt;/b&gt;&lt;/font&gt;&lt;br&gt;&lt;div&gt;&lt;font style=&quot;font-size: 11px&quot;&gt;[Person]&lt;/font&gt;&lt;/div&gt;&lt;div style=&quot;font-size: 10px&quot;&gt;&lt;br&gt;&lt;/div&gt;&lt;div style=&quot;font-size: 11px&quot;&gt;&lt;font color=&quot;#CCCCCC&quot;&gt;%B_DESCRIPTION%&lt;/font&gt;&lt;/div&gt;" A_NAME="Usuarios" B_DESCRIPTION="Cliente Interesado en contratar los Servicios de unidades de Taxis." placeholders="1" id="BuXUDtl-ndcxoQylWHEQ-1">
          <mxCell style="shape=stencil(tZTRUsMgEEW/hsdmCNimr06s/4Fka3aSQAZwWv16STYZRaXjaDuTl3sXTu6SJUzWvlUjMMGNGoDJBybEoDRCJ3fbjb7bjOC8NdGNS1qql3tO+kRa8EUrP4IOZB7xDA3ZPjjbwQmbsADQtOAwTFV5YPw+rpkeWWtrTCSgNT6pfKpHmEIT9/IzwXixpde8LppUzI0DBHBLZnKZePw9OMUW1bXA5a3AvBDpWZTXI98MXP2DLOvo5IZG1k9Kd8/OvpjmxzxzxU0Tm/nmVWbO13tQrnPvtMe35fZIcfkUjtj3dCNyDWVix63WwYV+oO9x9PDRze7LCCfd7NNmVvn32N/SzS79XmbjHQ==);whiteSpace=wrap;html=1;rounded=1;fontColor=#ffffff;arcSize=30;allowArrows=0;rotatable=0;spacingTop=70;aspect=fixed;editable=1;metaEdit=1;resizable=0;strokeColor=#06315C;fillColor=#083F75;recursiveResize=0;expand=0;" parent="1" vertex="1">
            <mxGeometry x="310" y="30" width="200" height="180" as="geometry" />
          </mxCell>
        </object>
        <object label="&lt;font style=&quot;font-size: 16px&quot;&gt;&lt;b&gt;%A_NAME%&lt;/b&gt;&lt;/font&gt;&lt;br&gt;&lt;div&gt;&lt;font style=&quot;font-size: 11px&quot;&gt;[Software System]&lt;/font&gt;&lt;/div&gt;&lt;div style=&quot;font-size: 10px&quot;&gt;&lt;br&gt;&lt;/div&gt;&lt;div style=&quot;font-size: 11px&quot;&gt;&lt;font color=&quot;#CCCCCC&quot;&gt;%B_DESCRIPTION%&lt;/font&gt;&lt;/div&gt;" placeholders="1" A_NAME="BuscadorCursosJDW" B_DESCRIPTION="Componente que permite a los Usuarios realizar Busqueda de Informacion de cursos disponibles en el sitio Web. " id="BuXUDtl-ndcxoQylWHEQ-2">
          <mxCell style="rounded=1;whiteSpace=wrap;html=1;fontColor=#ffffff;arcSize=6;metaEdit=1;points=[[0.25,0,0],[0.5,0,0],[0.75,0,0],[1,0.25,0],[1,0.5,0],[1,0.75,0],[0.75,1,0],[0.5,1,0],[0.25,1,0],[0,0.75,0],[0,0.5,0],[0,0.25,0]];resizable=0;editable=1;movableLabel=0;allowArrows=0;rotatable=0;imageWidth=24;fillColor=#1061B0;strokeColor=#0D5091;expand=0;recursiveResize=0;" parent="1" vertex="1">
            <mxGeometry x="290" y="270" width="240" height="120" as="geometry" />
          </mxCell>
        </object>
        <object label="&lt;div&gt;&lt;b&gt;%A_DESCRIPTION%&lt;/b&gt;&lt;br&gt;&lt;/div&gt;" placeholders="1" A_DESCRIPTION="Visita el Sitio Web Local" id="BuXUDtl-ndcxoQylWHEQ-3">
          <mxCell style="endArrow=block;html=1;fontSize=10;fontColor=#404040;strokeWidth=1;endFill=1;strokeColor=#828282;elbow=vertical;metaEdit=1;backgroundOutline=0;editable=1;jumpStyle=arc;jumpSize=14;entryX=0.5;entryY=0;entryDx=0;entryDy=0;entryPerimeter=0;" parent="1" source="BuXUDtl-ndcxoQylWHEQ-1" target="BuXUDtl-ndcxoQylWHEQ-2" edge="1">
            <mxGeometry width="50" height="50" relative="1" as="geometry">
              <mxPoint x="410" y="210" as="sourcePoint" />
              <mxPoint x="414" y="250" as="targetPoint" />
            </mxGeometry>
          </mxCell>
        </object>
        <object label="&lt;font style=&quot;font-size: 14px&quot;&gt;&lt;b&gt;%A_NAME%&lt;/b&gt;&lt;/font&gt;&lt;br&gt;&lt;div&gt;&lt;font style=&quot;font-size: 11px&quot;&gt;[Software System]&lt;/font&gt;&lt;/div&gt;&lt;div style=&quot;font-size: 6px&quot;&gt;&lt;br&gt;&lt;/div&gt;&lt;div style=&quot;font-size: 11px&quot;&gt;&lt;font color=&quot;#CCCCCC&quot;&gt;%B_DESCRIPTION%&lt;/font&gt;&lt;/div&gt;" placeholders="1" A_NAME="Node.JS" B_DESCRIPTION="Entorno en tiempo de ejecución multiplataforma, para la capa del servidor, asíncrono, con E/S de datos en una arquitectura orientada a eventos y basado en el motor V8 de Google" id="BuXUDtl-ndcxoQylWHEQ-4">
          <mxCell style="rounded=1;whiteSpace=wrap;html=1;fontColor=#ffffff;arcSize=6;metaEdit=1;points=[[0.25,0,0],[0.5,0,0],[0.75,0,0],[1,0.25,0],[1,0.5,0],[1,0.75,0],[0.75,1,0],[0.5,1,0],[0.25,1,0],[0,0.75,0],[0,0.5,0],[0,0.25,0]];resizable=0;editable=1;fillColor=#7b7484;strokeColor=#635970;movableLabel=0;allowArrows=0;rotatable=0;imageWidth=24;spacing=5;" parent="1" vertex="1">
            <mxGeometry x="560" y="420" width="220" height="100" as="geometry" />
          </mxCell>
        </object>
        <object label="&lt;font style=&quot;font-size: 16px&quot;&gt;&lt;b&gt;%A_NAME%&lt;/b&gt;&lt;/font&gt;&lt;br&gt;&lt;div&gt;&lt;font style=&quot;font-size: 11px&quot;&gt;[Software System]&lt;/font&gt;&lt;/div&gt;&lt;div style=&quot;font-size: 10px&quot;&gt;&lt;br&gt;&lt;/div&gt;&lt;div style=&quot;font-size: 11px&quot;&gt;&lt;font color=&quot;#CCCCCC&quot;&gt;%B_DESCRIPTION%&lt;/font&gt;&lt;/div&gt;" placeholders="1" A_NAME="Tachyons.io" B_DESCRIPTION="Aplicación web que permite usar sus Hojas de Estilo CSS." id="GYEY8zrUsKUIvFMSCB_I-1">
          <mxCell style="rounded=1;whiteSpace=wrap;html=1;fontColor=#ffffff;arcSize=6;metaEdit=1;points=[[0.25,0,0],[0.5,0,0],[0.75,0,0],[1,0.25,0],[1,0.5,0],[1,0.75,0],[0.75,1,0],[0.5,1,0],[0.25,1,0],[0,0.75,0],[0,0.5,0],[0,0.25,0]];resizable=0;editable=1;movableLabel=0;allowArrows=0;rotatable=0;fillColor=#8C8496;strokeColor=#736782;recursiveResize=0;expand=0;" vertex="1" parent="1">
            <mxGeometry x="-130" y="270" width="240" height="120" as="geometry" />
          </mxCell>
        </object>
        <object label="&lt;div&gt;&lt;b&gt;%A_DESCRIPTION%&lt;/b&gt;&lt;br&gt;&lt;/div&gt;&lt;div&gt;[%B_TECHNOLOGY%]&lt;/div&gt;" placeholders="1" A_DESCRIPTION="Consume Recurso" B_TECHNOLOGY="CSS" id="GYEY8zrUsKUIvFMSCB_I-2">
          <mxCell style="endArrow=blockThin;html=1;fontSize=10;fontColor=#404040;strokeWidth=1;endFill=1;strokeColor=#828282;elbow=vertical;metaEdit=1;endSize=14;startSize=14;jumpStyle=arc;jumpSize=16;exitX=0;exitY=0.25;exitDx=0;exitDy=0;exitPerimeter=0;entryX=1;entryY=0.25;entryDx=0;entryDy=0;entryPerimeter=0;" edge="1" parent="1" source="BuXUDtl-ndcxoQylWHEQ-2" target="GYEY8zrUsKUIvFMSCB_I-1">
            <mxGeometry width="50" height="50" relative="1" as="geometry">
              <mxPoint x="140" y="340" as="sourcePoint" />
              <mxPoint x="250" y="300" as="targetPoint" />
            </mxGeometry>
          </mxCell>
        </object>
      </root>
    </mxGraphModel>
  </diagram>
  <diagram id="rDJD_9tKd78E-M7TU_tS" name="C4-nivel2">
    <mxGraphModel dx="2010" dy="646" grid="1" gridSize="10" guides="1" tooltips="1" connect="1" arrows="1" fold="1" page="1" pageScale="1" pageWidth="827" pageHeight="1169" math="0" shadow="0">
      <root>
        <mxCell id="bQfcNRKBrOj0_OJoZJQy-0" />
        <mxCell id="bQfcNRKBrOj0_OJoZJQy-1" parent="bQfcNRKBrOj0_OJoZJQy-0" />
        <object label="&lt;font style=&quot;font-size: 16px&quot;&gt;&lt;b&gt;%A_NAME%&lt;/b&gt;&lt;/font&gt;&lt;br&gt;&lt;div&gt;&lt;font style=&quot;font-size: 11px&quot;&gt;[Person]&lt;/font&gt;&lt;/div&gt;&lt;div style=&quot;font-size: 10px&quot;&gt;&lt;br&gt;&lt;/div&gt;&lt;div style=&quot;font-size: 11px&quot;&gt;&lt;font color=&quot;#CCCCCC&quot;&gt;%B_DESCRIPTION%&lt;/font&gt;&lt;/div&gt;" A_NAME="Usuarios" B_DESCRIPTION="Cliente Interesado en contratar los Servicios de unidades de Taxis." placeholders="1" id="1yDjG3EPAx2sYiBs_gpk-0">
          <mxCell style="shape=stencil(tZTRUsMgEEW/hsdmCNimr06s/4Fka3aSQAZwWv16STYZRaXjaDuTl3sXTu6SJUzWvlUjMMGNGoDJBybEoDRCJ3fbjb7bjOC8NdGNS1qql3tO+kRa8EUrP4IOZB7xDA3ZPjjbwQmbsADQtOAwTFV5YPw+rpkeWWtrTCSgNT6pfKpHmEIT9/IzwXixpde8LppUzI0DBHBLZnKZePw9OMUW1bXA5a3AvBDpWZTXI98MXP2DLOvo5IZG1k9Kd8/OvpjmxzxzxU0Tm/nmVWbO13tQrnPvtMe35fZIcfkUjtj3dCNyDWVix63WwYV+oO9x9PDRze7LCCfd7NNmVvn32N/SzS79XmbjHQ==);whiteSpace=wrap;html=1;rounded=1;fontColor=#ffffff;arcSize=30;allowArrows=0;rotatable=0;spacingTop=70;aspect=fixed;editable=1;metaEdit=1;resizable=0;strokeColor=#06315C;fillColor=#083F75;recursiveResize=0;expand=0;" vertex="1" parent="bQfcNRKBrOj0_OJoZJQy-1">
            <mxGeometry x="310" y="30" width="200" height="180" as="geometry" />
          </mxCell>
        </object>
        <object label="&lt;div style=&quot;font-size: 14px&quot; align=&quot;left&quot;&gt;&lt;font style=&quot;font-size: 14px&quot; color=&quot;#4D4D4D&quot;&gt;&lt;b&gt;%A_NAME%&lt;br&gt;&lt;/b&gt;&lt;/font&gt;&lt;/div&gt;&lt;div align=&quot;left&quot;&gt;&lt;font style=&quot;font-size: 11px&quot; color=&quot;#4D4D4D&quot;&gt;[Software System]&lt;/font&gt;&lt;/div&gt;" placeholders="1" A_NAME="BuscadorCursosJDW" id="1yDjG3EPAx2sYiBs_gpk-1">
          <mxCell style="rounded=1;whiteSpace=wrap;html=1;dashed=1;arcSize=20;fillColor=none;strokeColor=#666666;fontColor=#333333;labelBackgroundColor=none;align=left;verticalAlign=bottom;labelBorderColor=none;spacingTop=0;spacing=10;dashPattern=8 4;metaEdit=1;rotatable=0;perimeter=rectanglePerimeter;noLabel=0;labelPadding=0;allowArrows=0;connectable=0;expand=0;recursiveResize=0;editable=1;pointerEvents=1;absoluteArcSize=1;" vertex="1" parent="bQfcNRKBrOj0_OJoZJQy-1">
            <mxGeometry x="110" y="240" width="700" height="580" as="geometry" />
          </mxCell>
        </object>
        <object label="&lt;font style=&quot;font-size: 16px&quot;&gt;&lt;b&gt;&lt;font style=&quot;font-size: 16px&quot;&gt;&lt;span&gt;%A_NAME%&lt;/span&gt;&lt;/font&gt;&lt;/b&gt;&lt;/font&gt;&lt;br&gt;&lt;div&gt;&lt;font style=&quot;font-size: 11px&quot;&gt;[Container: %B_TECHNOLOGY%]&lt;/font&gt;&lt;/div&gt;&lt;div style=&quot;font-size: 10px&quot;&gt;&lt;br&gt;&lt;/div&gt;&lt;div style=&quot;font-size: 11px&quot;&gt;&lt;font color=&quot;#E6E6E6&quot;&gt;%C_DESCRIPTION%&lt;/font&gt;&lt;/div&gt;" placeholders="1" A_NAME="SitioWebBuscadorJDW" C_DESCRIPTION="Sitio Web donde estará alojado el componente de Búsqueda de Cursos." B_TECHNOLOGY="HTML - CSS - JavaScript" id="1yDjG3EPAx2sYiBs_gpk-2">
          <mxCell style="rounded=1;whiteSpace=wrap;html=1;fontColor=#ffffff;arcSize=6;metaEdit=1;points=[[0.25,0,0],[0.5,0,0],[0.75,0,0],[1,0.25,0],[1,0.5,0],[1,0.75,0],[0.75,1,0],[0.5,1,0],[0.25,1,0],[0,0.75,0],[0,0.5,0],[0,0.25,0]];resizable=0;editable=1;movableLabel=0;allowArrows=0;rotatable=0;autosize=0;fillColor=#23A2D9;strokeColor=#0E7DAD;expand=0;recursiveResize=0;" vertex="1" parent="bQfcNRKBrOj0_OJoZJQy-1">
            <mxGeometry x="310" y="260" width="240" height="120" as="geometry" />
          </mxCell>
        </object>
        <object label="&lt;font style=&quot;font-size: 16px&quot;&gt;&lt;b&gt;%A_NAME%&lt;/b&gt;&lt;/font&gt;&lt;br&gt;&lt;div&gt;&lt;font style=&quot;font-size: 11px&quot;&gt;[Software System]&lt;/font&gt;&lt;/div&gt;&lt;div style=&quot;font-size: 10px&quot;&gt;&lt;br&gt;&lt;/div&gt;&lt;div style=&quot;font-size: 11px&quot;&gt;&lt;font color=&quot;#CCCCCC&quot;&gt;%B_DESCRIPTION%&lt;/font&gt;&lt;/div&gt;" placeholders="1" A_NAME="Tachyons.io" B_DESCRIPTION="Aplicación web que permite usar sus Hojas de Estilo CSS." id="OKis53kGXx7ewevri9_k-1">
          <mxCell style="rounded=1;whiteSpace=wrap;html=1;fontColor=#ffffff;arcSize=6;metaEdit=1;points=[[0.25,0,0],[0.5,0,0],[0.75,0,0],[1,0.25,0],[1,0.5,0],[1,0.75,0],[0.75,1,0],[0.5,1,0],[0.25,1,0],[0,0.75,0],[0,0.5,0],[0,0.25,0]];resizable=0;editable=1;movableLabel=0;allowArrows=0;rotatable=0;fillColor=#8C8496;strokeColor=#736782;recursiveResize=0;expand=0;" vertex="1" parent="bQfcNRKBrOj0_OJoZJQy-1">
            <mxGeometry x="-160" y="300" width="240" height="120" as="geometry" />
          </mxCell>
        </object>
      </root>
    </mxGraphModel>
  </diagram>
</mxfile>
